<svg width="22" height="26" viewBox="0 0 22 26" fill="none" xmlns="http://www.w3.org/2000/svg">
<path d="M0.224 0.512C0.824 0.536 1.628 0.559999 2.636 0.583999C3.668 0.607999 4.688 0.619998 5.696 0.619998C6.848 0.619998 7.964 0.607999 9.044 0.583999C10.124 0.559999 10.892 0.547999 11.348 0.547999C14.684 0.547999 17.18 1.208 18.836 2.528C20.492 3.848 21.32 5.552 21.32 7.64C21.32 8.504 21.152 9.416 20.816 10.376C20.48 11.312 19.904 12.188 19.088 13.004C18.296 13.796 17.204 14.444 15.812 14.948C14.42 15.452 12.668 15.704 10.556 15.704H6.884V14.984H10.196C11.612 14.984 12.68 14.66 13.4 14.012C14.144 13.364 14.648 12.512 14.912 11.456C15.2 10.4 15.344 9.26 15.344 8.036C15.344 5.756 15.008 4.052 14.336 2.924C13.664 1.796 12.512 1.232 10.88 1.232C9.944 1.232 9.332 1.436 9.044 1.844C8.78 2.252 8.648 3.08 8.648 4.328V21.968C8.648 22.904 8.744 23.6 8.936 24.056C9.128 24.512 9.5 24.812 10.052 24.956C10.604 25.1 11.42 25.184 12.5 25.208V26C11.756 25.976 10.796 25.952 9.62 25.928C8.444 25.904 7.208 25.892 5.912 25.892C4.88 25.892 3.872 25.904 2.888 25.928C1.904 25.952 1.016 25.976 0.224 26V25.28C0.992 25.232 1.568 25.136 1.952 24.992C2.336 24.848 2.588 24.56 2.708 24.128C2.852 23.696 2.924 23.048 2.924 22.184V4.328C2.924 3.44 2.852 2.792 2.708 2.384C2.588 1.952 2.324 1.664 1.916 1.52C1.532 1.352 0.968 1.256 0.224 1.232V0.512Z" fill="#918200"/>
</svg>
