<svg
  xmlns:dc="http://purl.org/dc/elements/1.1/"
  xmlns:cc="http://creativecommons.org/ns#"
  xmlns:rdf="http://www.w3.org/1999/02/22-rdf-syntax-ns#"
  xmlns:svg="http://www.w3.org/2000/svg"
  xmlns="http://www.w3.org/2000/svg"
  xmlns:sodipodi="http://sodipodi.sourceforge.net/DTD/sodipodi-0.dtd"
  xmlns:inkscape="http://www.inkscape.org/namespaces/inkscape"
  version="1.1"
  x="0px"
  y="0px"
  viewBox="0 0 100 125"
>
  <g >
    <path
      style="font-size:medium;font-style:normal;font-variant:normal;font-weight:normal;font-stretch:normal;text-indent:0;text-align:start;text-decoration:none;line-height:normal;letter-spacing:normal;word-spacing:normal;text-transform:none;direction:ltr;block-progression:tb;writing-mode:lr-tb;text-anchor:start;baseline-shift:baseline;opacity:1;color:#000000;fill:#000000;fill-opacity:1;stroke:none;stroke-width:3.07692313000000000;marker:none;visibility:visible;display:inline;overflow:visible;enable-background:accumulate;font-family:Sans;-inkscape-font-specification:Sans"
      d="M 50 14.03125 C 30.141439 14.03125 14.03125 30.14142 14.03125 50 C 14.03125 69.8585 30.141439 85.96875 50 85.96875 C 69.85856 85.96875 85.96875 69.8585 85.96875 50 C 85.96875 30.14142 69.85856 14.03125 50 14.03125 z M 50 17.96875 C 67.696795 17.96875 82.03125 32.30318 82.03125 50 C 82.03125 59.95445 77.489184 68.848891 70.375 74.71875 C 68.803011 66.768444 65.036741 60.055987 60.21875 55.9375 C 63.147952 53.199046 65 49.312974 65 45 C 65 36.73942 58.260582 30 50 30 C 41.739418 30 35 36.73942 35 45 C 35 49.312974 36.852048 53.199046 39.78125 55.9375 C 34.963259 60.055987 31.196989 66.768444 29.625 74.71875 C 22.510816 68.848891 17.96875 59.95445 17.96875 50 C 17.96875 32.30318 32.303204 17.96875 50 17.96875 z M 50 34 C 56.098821 34 61 38.90118 61 45 C 61 51.09882 56.098821 56 50 56 C 43.901179 56 39 51.09882 39 45 C 39 38.90118 43.901179 34 50 34 z M 45 40 C 43.895431 40 43 40.895431 43 42 C 43 43.104569 43.895431 44 45 44 C 46.104569 44 47 43.104569 47 42 C 47 40.895431 46.104569 40 45 40 z M 55 40 C 53.895431 40 53 40.895431 53 42 C 53 43.104569 53.895431 44 55 44 C 56.104569 44 57 43.104569 57 42 C 57 40.895431 56.104569 40 55 40 z M 43.8125 46.25 A 2.0002 2.0002 0 0 0 42.4375 49.59375 C 44.294191 51.68015 47.021801 53 50 53 C 52.978199 53 55.705809 51.68015 57.5625 49.59375 A 2.0034926 2.0034926 0 0 0 54.5625 46.9375 C 53.454249 48.1829 51.812641 49 50 49 C 48.187359 49 46.545751 48.1829 45.4375 46.9375 A 2.0002 2.0002 0 0 0 43.8125 46.25 z M 43.1875 58.34375 C 45.237099 59.398019 47.54263 60 50 60 C 52.45737 60 54.762901 59.398019 56.8125 58.34375 C 61.393197 61.854797 65.496977 68.842065 66.75 77.28125 C 61.875686 80.27949 56.148548 82.03125 50 82.03125 C 43.851451 82.03125 38.124315 80.27949 33.25 77.28125 C 34.503023 68.842065 38.606803 61.854797 43.1875 58.34375 z "
    />
  </g>
</svg>
